#!OML:ASF I:\Actors\actors\Patient Classification 2\Patient 1\Session 1\actor1.ASF
:FULLY-SPECIFIED
:DEGREES
78
root -1.1332 18.1478 5.75168 -0.0773373 -4.8401 -3.1804
lowerback 3.23701 0.612322 0.917182
upperback -1.10789 0.886236 1.02854
thorax -2.95568 0.434383 0.491768
lowerneck -10.3487 0.205297 -1.20334
upperneck 17.5165 0.326288 0.894911
head 7.05838 0.154362 0.518546
rclavicle -4.87954e-015 1.59028e-015
rhumerus -47.1677 10.036 -94.3545
rradius 45.6472
rwrist 16.6009
rhand -4.65655 -31.9618
rfingers 7.12502
rthumb 21.1234 -60.8311
lclavicle -4.87954e-015 1.59028e-015
lhumerus -42.6121 -7.97348 95.8579
lradius 41.5245
lwrist -0.849431
lhand 3.56384 -21.2714
lfingers 7.12502
lthumb 28.9992 6.49247
rfemur 8.82677 -0.772016 19.103
rtibia -7.95139e-015
rfoot -15.7587 -7.6415
rtoes 6.71572
lfemur 17.3112 -5.87219 -14.2257
ltibia -16.2522
lfoot -5.60193 20.5467
ltoes -10.5185
79
root -1.13512 18.1502 5.72259 -0.182414 -4.88453 -3.16903
lowerback 3.62599 0.570515 0.9539
upperback -0.876949 0.833301 0.960847
thorax -2.93508 0.406937 0.401731
lowerneck -10.6143 0.233597 -1.13143
upperneck 17.3284 0.352839 0.910426
head 7.04424 0.173986 0.514038
rclavicle -3.43369e-015 7.55382e-015
rhumerus -46.5891 12.7522 -95.6918
rradius 48.1813
rwrist 16.6767
rhand -7.55936 -32.0674
rfingers 7.12502
rthumb 18.3328 -61.2235
lclavicle -3.43369e-015 7.55382e-015
lhumerus -42.2797 -10.304 96.4596
lradius 43.3559
lwrist 3.92398
lhand 3.13471 -21.8378
lfingers 7.12502
lthumb 28.5893 5.99586
rfemur 8.82665 -0.72989 19.1108
rtibia 7.95139e-015
rfoot -15.6609 -7.71893
rtoes 6.50209
lfemur 17.2969 -5.66337 -14.1966
ltibia -16.211
lfoot -5.43885 20.4035
ltoes -10.6259
80
root -1.13747 18.1516 5.68972 -0.325802 -5.04982 -3.10615
lowerback 4.189 0.577051 0.918109
upperback -0.681828 0.844495 0.889262
thorax -3.05028 0.412266 0.342513
lowerneck -10.7914 0.25208 -1.1839
upperneck 17.1533 0.363701 1.05427
head 7.01823 0.189086 0.570048
rclavicle -1.51391e-014 -5.96354e-016
rhumerus -45.9708 15.4389 -96.879
rradius 51.2627
rwrist 16.7945
rhand -10.9763 -33.41
rfingers 7.12502
rthumb 15.0433 -62.8434
lclavicle -1.51391e-014 -5.96354e-016
lhumerus -42.0008 -12.6254 97.0721
lradius 45.6963
lwrist 9.16979
lhand 1.30486 -22.2403
lfingers 7.12502
lthumb 26.8396 5.87487
rfemur 8.83301 -0.565779 19.0655
rtibia 4.77083e-015
rfoot -15.5459 -7.79479
rtoes 6.37752
lfemur 17.322 -5.52383 -14.2544
ltibia -16.1375
lfoot -5.37933 20.4352
ltoes -10.5983
81
root -1.14008 18.1548 5.65037 -0.43019 -5.22694 -3.08469
lowerback 4.85872 0.61458 0.884785
upperback -0.527413 0.899466 0.844247
thorax -3.26763 0.439153 0.304376
lowerneck -10.8519 0.251136 -1.35475
upperneck 16.8888 0.344161 1.33581
head 6.94261 0.194007 0.686534
rclavicle -5.52249e-015 1.63003e-014
rhumerus -45.1976 17.8429 -97.7222
rradius 54.7272
rwrist 16.7738
rhand -12.9642 -34.7358
rfingers 7.12502
rthumb 13.1277 -64.3026
lclavicle -5.52249e-015 1.63003e-014
lhumerus -41.6231 -14.8539 97.6358
lradius 48.4692
lwrist 14.7902
lhand -0.953164 -20.9498
lfingers 7.12502
lthumb 24.6771 7.47894
rfemur 8.77719 -0.393298 19.0777
rtibia 4.77083e-015
rfoot -15.4369 -7.8755
rtoes 6.40761
lfemur 17.2931 -5.55719 -14.2764
ltibia -16.0592
lfoot -5.38947 20.639
ltoes -10.3358
82
root -1.14274 18.1614 5.60966 -0.407926 -5.36686 -3.01882
lowerback 5.43113 0.655686 0.815127
upperback -0.413846 0.954655 0.784031
thorax -3.47246 0.466642 0.270933
lowerneck -10.8176 0.246931 -1.4845
upperneck 16.5423 0.331692 1.51492
head 6.82436 0.195791 0.7628
rclavicle 3.83903e-015 5.36719e-015
rhumerus -44.2338 19.9295 -98.244
rradius 58.5371
rwrist 16.6182
rhand -14.2762 -35.252
rfingers 7.12502
rthumb 11.8628 -64.896
lclavicle 3.83903e-015 5.36719e-015
lhumerus -40.9968 -16.8328 98.0032
lradius 51.4127
lwrist 20.8057
lhand -3.61103 -19.3672
lfingers 7.12502
lthumb 22.1274 9.38658
rfemur 8.57879 -0.258998 19.0423
rtibia -1.11319e-014
rfoot -15.3211 -7.9879
rtoes 6.26338
lfemur 17.102 -5.58681 -14.3279
ltibia -15.979
lfoot -5.38597 20.8167
ltoes -10.07
83
root -1.16169 18.1628 5.58259 -0.449919 -4.9656 -2.97124
lowerback 5.79296 0.538109 0.556081
upperback -0.227219 0.782646 0.779985
thorax -3.48653 0.385803 0.423828
lowerneck -10.8602 0.220644 -1.63428
upperneck 16.3605 0.294079 1.6882
head 6.77331 0.183668 0.839164
rclavicle 7.82715e-015 -4.17448e-015
rhumerus -42.9937 21.726 -98.4484
rradius 62.5119
rwrist 16.4749
rhand -15.0839 -35.7605
rfingers 7.12502
rthumb 11.0838 -65.4478
lclavicle 7.82715e-015 -4.17448e-015
lhumerus -40.0548 -18.3911 98.1099
lradius 54.3236
lwrist 26.7358
lhand -6.71043 -20.8669
lfingers 7.12502
lthumb 19.1493 8.21039
rfemur 8.64523 -0.673414 19.071
rtibia 6.36111e-015
rfoot -15.3956 -7.94928
rtoes 6.3621
lfemur 16.9327 -5.25581 -14.1721
ltibia -15.949
lfoot -5.00505 20.1376
ltoes -10.4691
84
root -1.16973 18.17 5.54406 -0.371542 -4.9541 -2.99167
lowerback 6.229 0.548091 0.441689
upperback -0.0957494 0.791312 0.79407
thorax -3.59745 0.391987 0.498236
lowerneck -10.8767 0.177991 -1.76956
upperneck 16.2321 0.23044 1.86444
head 6.73548 0.159962 0.91188
rclavicle -1.35484e-014 6.36111e-015
rhumerus -41.4201 23.3209 -98.3246
rradius 66.4087
rwrist 16.8844
rhand -20.554 -35.9495
rfingers 7.12502
rthumb 5.80496 -65.85
lclavicle -1.35484e-014 6.36111e-015
lhumerus -38.8218 -19.5315 98.0909
lradius 57.1324
lwrist 32.4215
lhand -9.06078 -21.0067
lfingers 7.12502
lthumb 16.8879 8.27896
rfemur 8.45008 -0.696924 19.1511
rtibia 2.06736e-014
rfoot -15.355 -7.96677
rtoes 6.79407
lfemur 16.6781 -4.92645 -14.0213
ltibia -15.9347
lfoot -4.72414 19.8598
ltoes -10.8288
85
root -1.169 18.1761 5.51931 -0.22995 -4.86048 -3.10116
lowerback 6.38165 0.523477 0.525027
upperback 0.0801528 0.765267 0.823858
thorax -3.50043 0.377854 0.483988
lowerneck -10.7949 0.149909 -1.8061
upperneck 16.0549 0.184294 1.94889
head 6.66505 0.142481 0.939667
rclavicle -6.27414e-016 8.54774e-015
rhumerus -39.5515 24.8261 -97.9364
rradius 70.1336
rwrist 17.8991
rhand -21.9542 -37.035
rfingers 7.12502
rthumb 4.45297 -66.9682
lclavicle -6.27414e-016 8.54774e-015
lhumerus -37.3824 -20.2942 98.0139
lradius 59.8714
lwrist 37.9534
lhand -11.4057 -21.0196
lfingers 7.12502
lthumb 14.6296 8.44433
rfemur 8.24147 -0.793166 19.2623
rtibia 1.74931e-014
rfoot -15.2933 -7.97476
rtoes 7.05377
lfemur 16.4357 -4.53079 -13.8151
ltibia -15.9805
lfoot -4.39913 19.4525
ltoes -11.6479
86
root -1.16787 18.1845 5.48805 -0.0488076 -4.81699 -3.11515
lowerback 6.67019 0.530893 0.475445
upperback 0.193457 0.773863 0.845335
thorax -3.54617 0.38294 0.531054
lowerneck -10.8482 0.150525 -1.86809
upperneck 16.0763 0.188854 1.99512
head 6.68094 0.145055 0.965472
rclavicle 3.29237e-015 3.18055e-015
rhumerus -37.2881 26.2212 -97.2886
rradius 73.2561
rwrist 19.4589
rhand -22.1654 -37.9764
rfingers 7.12502
rthumb 4.24905 -67.9138
lclavicle 3.29237e-015 3.18055e-015
lhumerus -35.7794 -20.6387 97.9144
lradius 62.4204
lwrist 43.0549
lhand -13.3993 -21.2018
lfingers 7.12502
lthumb 12.7083 8.39151
rfemur 7.942 -0.838892 19.2775
rtibia -2.8625e-014
rfoot -15.1608 -8.06758
rtoes 6.79761
lfemur 16.1505 -4.27428 -13.7262
ltibia -16.0559
lfoot -4.1643 19.2264
ltoes -11.9631
87
root -1.16774 18.1929 5.44869 0.120168 -4.8579 -3.21168
lowerback 7.19327 0.567724 0.486637
upperback 0.268984 0.829864 0.88863
thorax -3.76231 0.410427 0.559336
lowerneck -11.0416 0.157919 -1.94825
upperneck 16.2074 0.210132 2.02532
head 6.7562 0.153731 0.991794
rclavicle -2.36057e-015 -6.95746e-015
rhumerus -34.4596 27.3792 -96.4993
rradius 75.3552
rwrist 21.6404
rhand -23.3248 -37.4644
rfingers 7.12502
rthumb 3.12943 -67.4211
lclavicle -2.36057e-015 -6.95746e-015
lhumerus -34.0083 -20.4766 97.8128
lradius 64.6701
lwrist 47.5381
lhand -14.9374 -21.7744
lfingers 7.12502
lthumb 11.2252 7.90529
rfemur 7.61105 -0.802379 19.3905
rtibia 1.74931e-014
rfoot -14.9601 -8.17682
rtoes 6.7994
lfemur 15.8933 -3.99527 -13.5328
ltibia -16.1598
lfoot -3.96676 19.0613
ltoes -11.695
88
root -1.16646 18.1989 5.40485 0.226381 -5.02597 -3.26083
lowerback 7.84988 0.652096 0.482793
upperback 0.389996 0.946502 0.874449
thorax -4.00563 0.467562 0.52805
lowerneck -11.2106 0.139422 -1.95052
upperneck 16.1549 0.186367 2.03953
head 6.76941 0.144211 0.994884
rclavicle 6.54747e-015 6.55989e-015
rhumerus -31.1701 28.2778 -95.6954
rradius 76.718
rwrist 23.824
rhand -24.874 -36.7599
rfingers 7.12502
rthumb 1.63321 -66.7334
lclavicle 6.54747e-015 6.55989e-015
lhumerus -32.066 -19.8368 97.7307
lradius 66.6008
lwrist 51.6513
lhand -16.3798 -22.6359
lfingers 7.12502
lthumb 9.8337 7.11443
rfemur 7.30788 -0.63569 19.4422
rtibia 2.38542e-015
rfoot -14.741 -8.27679
rtoes 6.97302
lfemur 15.7022 -3.53691 -13.3947
ltibia -16.2626
lfoot -3.7217 18.8955
ltoes -11.6549
89
root -1.16175 18.2042 5.35673 0.290008 -5.15149 -3.21654
lowerback 8.60938 0.714831 0.443897
upperback 0.547576 1.02812 0.791004
thorax -4.26708 0.507113 0.445883
lowerneck -11.3616 0.131969 -1.8987
upperneck 15.9212 0.165463 2.07611
head 6.72125 0.141358 0.995311
rclavicle -6.4605e-016 -7.55382e-015
rhumerus -27.7742 29.074 -94.8757
rradius 77.6869
rwrist 25.8827
rhand -26.3148 -37.0849
rfingers 7.12502
rthumb 0.241733 -67.0645
lclavicle -6.4605e-016 -7.55382e-015
lhumerus -30.0796 -18.7967 97.7257
lradius 68.2307
lwrist 55.6229
lhand -17.4323 -23.82
lfingers 7.12502
lthumb 8.81814 5.9758
rfemur 7.03186 -0.509583 19.3878
rtibia -1.59028e-015
rfoot -14.557 -8.45206
rtoes 6.50491
lfemur 15.5378 -3.02702 -13.3638
ltibia -16.413
lfoot -3.38505 18.6955
ltoes -11.9839
90
root -1.15774 18.2095 5.30475 0.32597 -5.24898 -3.19318
lowerback 9.47302 0.754038 0.413305
upperback 0.747159 1.07811 0.701759
thorax -4.54159 0.530526 0.354311
lowerneck -11.6287 0.142683 -1.86902
upperneck 15.633 0.159614 2.20729
head 6.6753 0.152943 1.03124
rclavicle -1.31943e-014 -6.16232e-015
rhumerus -24.3742 29.913 -93.96
rradius 78.2257
rwrist 27.8918
rhand -27.9025 -38.0748
rfingers 7.12502
rthumb -1.29171 -68.0507
lclavicle -1.31943e-014 -6.16232e-015
lhumerus -28.0646 -17.3442 97.8294
lradius 69.3971
lwrist 59.0754
lhand -17.0784 -25.0625
lfingers 7.12502
lthumb 9.15967 4.71859
rfemur 7.8398 -0.408288 19.3427
rtibia -2.07375
rfoot -13.584 -9.32792
rtoes 5.82328
lfemur 15.4132 -2.44669 -13.2933
ltibia -16.6277
lfoot -2.94541 18.3493
ltoes -12.411
91
root -1.15624 18.2122 5.25029 0.324745 -5.40243 -3.14822
lowerback 10.3736 0.811621 0.309071
upperback 1.0105 1.14203 0.60763
thorax -4.76998 0.56208 0.295753
lowerneck -11.9343 0.129655 -1.90328
upperneck 15.212 0.121094 2.4275
head 6.59409 0.152635 1.10258
rclavicle -3.04389e-014 1.49089e-014
rhumerus -20.9931 30.968 -92.972
rradius 78.2293
rwrist 28.9961
rhand -29.6179 -39.2832
rfingers 7.12502
rthumb -2.94842 -69.2425
lclavicle -3.04389e-014 1.49089e-014
lhumerus -25.8847 -15.5627 98.1161
lradius 69.8309
lwrist 61.9067
lhand -16.2052 -26.4398
lfingers 7.12502
lthumb 10.0022 3.30249
rfemur 8.92795 -0.253406 19.2942
rtibia -4.64891
rfoot -12.3912 -10.3653
rtoes 5.45301
lfemur 15.3608 -1.74143 -13.2321
ltibia -16.9174
lfoot -2.37614 17.9236
ltoes -12.7899
92
root -1.15623 18.2127 5.19339 0.367245 -5.56448 -3.11632
lowerback 11.2528 0.86233 0.176145
upperback 1.26115 1.19017 0.506983
thorax -4.99821 0.586229 0.247577
lowerneck -12.1888 0.131966 -1.94414
upperneck 14.6703 0.10388 2.66855
head 6.46509 0.163321 1.18244
rclavicle -1.55052e-014 -1.31198e-014
rhumerus -17.6921 32.3745 -91.9835
rradius 77.6733
rwrist 29.0691
rhand -31.7278 -40.9239
rfingers 7.12502
rthumb -4.98595 -70.8452
lclavicle -1.55052e-014 -1.31198e-014
lhumerus -23.6053 -13.5515 98.5974
lradius 69.5605
lwrist 64.3938
lhand -15.9456 -27.971
lfingers 7.12502
lthumb 10.2526 1.75913
rfemur 9.55265 -0.0979738 19.3039
rtibia -6.43769
rfoot -11.4317 -11.2012
rtoes 4.99251
lfemur 15.2954 -0.941528 -13.1413
ltibia -17.2943
lfoot -1.67199 17.4812
ltoes -13.1602
